{"title":"Jason Derulo - Stupid Love HD 720p x264 AAC E-Subs [GWC].mp4","uid":9566984,"size":52345399,"categoryP":"video","categoryS":"music_videos","magnet":"?xt=urn:btih:3bda620a371de7eb0329a98fd7bc8fd91be7e817&amp;dn=Jason+Derulo+-+Stupid+Love+HD+720p+x264+AAC+E-Subs+%5BGWC%5D.mp4&amp;tr=udp%3A%2F%2Ftracker.openbittorrent.com%3A80&amp;tr=udp%3A%2F%2Fopen.demonii.com%3A1337&amp;tr=udp%3A%2F%2Ftracker.coppersurfer.tk%3A6969&amp;tr=udp%3A%2F%2Fexodus.desync.com%3A6969","seeders":2,"leechers":2,"uploader":"canc232","files":1,"time":1391535964,"description":"Jason Derulo - Stupid Love HD 720p x264 AAC E-Subs [GWC]\n\n\nCOVER : &lt;a href=&quot;\nhttp://s20.postimg.org/hx73lgbjx/stupid.jpg&quot; rel=&quot;nofollow&quot; target=&quot;_NEW&quot;&gt;\nhttp://s20.postimg.org/hx73lgbjx/stupid.jpg&lt;/a&gt;\n\n\nTHUMBNAIL IMAGE : &lt;a href=&quot;\nhttp://img197.imageshack.us/img197/8895/0w8c.jpg&quot; rel=&quot;nofollow&quot; target=&quot;_NEW&quot;&gt;\nhttp://img197.imageshack.us/img197/8895/0w8c.jpg&lt;/a&gt;\n\n\n\nMEDIA INFO :\nGeneral \nFormat : MPEG-4 \nFormat profile : Base Media \nFile size : 49.9 MiB \nDuration : 4mn 8s \nOverall bit rate mode : Variable \nOverall bit rate : 1 682 Kbps \n\nVideo \nFormat : AVC \nFormat profile : &lt;a class=&quot;__cf_email__&quot; href=&quot;/cdn-cgi/l/email-protection&quot; data-cfemail=&quot;6f220e06012f235c415e&quot;&gt;[email&amp;#160;protected]&lt;/a&gt;&lt;script cf-hash='f9e31' type=&quot;text/javascript&quot;&gt;\n/* &lt;![CDATA[ */!function(){try{var t=&quot;currentScript&quot;in document?document.currentScript:function(){for(var t=document.getElementsByTagName(&quot;script&quot;),e=t.length;e--;)if(t[e].getAttribute(&quot;cf-hash&quot;))return t[e]}();if(t&amp;&amp;t.previousSibling){var e,r,n,i,c=t.previousSibling,a=c.getAttribute(&quot;data-cfemail&quot;);if(a){for(e=&quot;&quot;,r=parseInt(a.substr(0,2),16),n=2;a.length-n;n+=2)i=parseInt(a.substr(n,2),16)^r,e+=String.fromCharCode(i);e=document.createTextNode(e),c.parentNode.replaceChild(e,c)}}}catch(u){}}();/* ]]&gt; */&lt;/script&gt; \nFormat settings, CABAC : Yes \nFormat settings, ReFrames : 3 frames \nDuration : 4mn 8s \nSource duration : 4mn 8s \nWidth : 1 280 pixels \nHeight : 720 pixels \nDisplay aspect ratio : 16:9 \nFrame rate : 23.976 fps \nStream size : 47.3 MiB (95%) \nTitle : Jason Derulo -Stupid Love HD720p x264 AAC E-Subs [GWC] \n\nAudio \nFormat : AAC \nFormat profile : LC \nDuration : 4mn 8s \nBit rate mode : Variable \nChannel(s) : 2 channels \nSampling rate : 48.0 KHz \nStream size : 2.54 MiB (5%) \nLanguage : English \n\nText \nFormat : Timed Text \nDuration : 4mn 8s \nTitle : English Subtitle by [GWC] \nLanguage : English ","torrent":{"xt":"urn:btih:3bda620a371de7eb0329a98fd7bc8fd91be7e817","amp;dn":"Jason+Derulo+-+Stupid+Love+HD+720p+x264+AAC+E-Subs+%5BGWC%5D.mp4","amp;tr":["udp%3A%2F%2Ftracker.openbittorrent.com%3A80","udp%3A%2F%2Fopen.demonii.com%3A1337","udp%3A%2F%2Ftracker.coppersurfer.tk%3A6969","udp%3A%2F%2Fexodus.desync.com%3A6969"],"infoHash":"3bda620a371de7eb0329a98fd7bc8fd91be7e817","infoHashBuffer":{"type":"Buffer","data":[59,218,98,10,55,29,231,235,3,41,169,143,215,188,143,217,27,231,232,23]},"announce":[],"urlList":[]}}